<svg width="36" height="36" viewBox="0 0 36 36" fill="none" xmlns="http://www.w3.org/2000/svg">
<path d="M16.8677 6.00146V6.00446H5.62071C4.17171 6.00446 2.99571 7.18046 2.99571 8.62946V27.372C2.99571 28.0682 3.27227 28.7358 3.76456 29.2281C4.25684 29.7204 4.92452 29.997 5.62071 29.997H19.1177V29.994H30.3662C31.0624 29.994 31.7301 29.7174 32.2224 29.2251C32.7146 28.7328 32.9912 28.0652 32.9912 27.369V8.62647C32.9912 7.17596 31.8152 6.00146 30.3662 6.00146H16.8692H16.8677ZM5.62071 8.25446H16.8677V27.747H5.62071C5.52126 27.747 5.42587 27.7075 5.35555 27.6371C5.28522 27.5668 5.24571 27.4714 5.24571 27.372V8.63097C5.24571 8.53151 5.28522 8.43613 5.35555 8.3658C5.42587 8.29547 5.52126 8.25597 5.62071 8.25597V8.25446ZM19.1177 8.25147H30.3647C30.4642 8.25147 30.5595 8.29097 30.6299 8.3613C30.7002 8.43163 30.7397 8.52701 30.7397 8.62647V27.369C30.7397 27.576 30.5717 27.744 30.3647 27.744H19.1177V8.25147Z" fill="white"/>
</svg>
